<mxfile host="app.diagrams.net" modified="2025-09-10T00:00:00Z" agent="CFB" version="22.1.0">
  <diagram id="er-realtime" name="Realtime ER">
    <mxGraphModel dx="1600" dy="900" grid="1" gridSize="10" guides="1" tooltips="1" connect="1" arrows="1" fold="1" page="1" pageScale="1" pageWidth="1920" pageHeight="1080" math="0" shadow="0">
      <root>
        <mxCell id="0"/>
        <mxCell id="1" parent="0"/>
        <!-- DRAFT_STATES realtime channel -->
        <mxCell id="tbl-events" value="EVENTS" style="shape=table;container=1;childLayout=tableLayout;strokeColor=#1f2937;fillColor=#e5e7eb;rounded=1;" vertex="1" parent="1">
          <mxGeometry x="300" y="240" width="340" height="152" as="geometry"/>
        </mxCell>
        <mxCell id="events-id" value="id,PK" style="shape=tableRow;" vertex="1" parent="tbl-events"><mxGeometry x="0" y="28" width="340" height="24" as="geometry"/></mxCell>
        <mxCell id="events-type" value="type,enum" style="shape=tableRow;" vertex="1" parent="tbl-events"><mxGeometry x="0" y="52" width="340" height="24" as="geometry"/></mxCell>
        <mxCell id="events-payload" value="payload,json" style="shape=tableRow;" vertex="1" parent="tbl-events"><mxGeometry x="0" y="76" width="340" height="24" as="geometry"/></mxCell>
      </root>
    </mxGraphModel>
  </diagram>
</mxfile>
